<svg width="800" height="600" xmlns="http://www.w3.org/2000/svg">
  <!-- Background gradient -->
  <defs>
    <linearGradient id="bg-gradient" x1="0%" y1="0%" x2="100%" y2="100%">
      <stop offset="0%" stop-color="#1d3557" stop-opacity="0.9" />
      <stop offset="100%" stop-color="#457b9d" stop-opacity="0.9" />
    </linearGradient>
    
    <linearGradient id="gold-gradient" x1="0%" y1="0%" x2="100%" y2="100%">
      <stop offset="0%" stop-color="#d4af37" />
      <stop offset="100%" stop-color="#f1c40f" />
    </linearGradient>
    
    <pattern id="islamic-pattern" x="0" y="0" width="100" height="100" patternUnits="userSpaceOnUse">
      <!-- Islamic geometric pattern -->
      <path d="M50,15 L85,50 L50,85 L15,50 Z" fill="none" stroke="url(#gold-gradient)" stroke-width="1" opacity="0.3" />
      <path d="M0,0 L100,100 M100,0 L0,100" stroke="url(#gold-gradient)" stroke-width="0.5" opacity="0.2" />
      <circle cx="50" cy="50" r="30" fill="none" stroke="url(#gold-gradient)" stroke-width="0.5" opacity="0.3" />
    </pattern>
    
    <!-- Arabic letter shapes for decoration -->
    <g id="arabic-letter-alif">
      <path d="M5,0 L5,40 C5,45 0,45 0,40 L0,0" fill="url(#gold-gradient)" opacity="0.7" />
    </g>
    
    <g id="arabic-letter-ba">
      <path d="M0,20 C10,20 30,20 40,10 C45,5 45,0 40,0 C30,0 0,15 0,20 Z" fill="url(#gold-gradient)" opacity="0.7" />
      <circle cx="5" cy="15" r="2" fill="#fff" opacity="0.7" />
    </g>
    
    <filter id="glow">
      <feGaussianBlur stdDeviation="2.5" result="coloredBlur"/>
      <feMerge>
        <feMergeNode in="coloredBlur"/>
        <feMergeNode in="SourceGraphic"/>
      </feMerge>
    </filter>
  </defs>
  
  <!-- Main background -->
  <rect width="800" height="600" fill="url(#bg-gradient)" />
  
  <!-- Pattern overlay -->
  <rect width="800" height="600" fill="url(#islamic-pattern)" opacity="0.3" />
  
  <!-- Decorative elements -->
  <g opacity="0.15">
    <!-- Scattered Arabic letters as decorative elements -->
    <use href="#arabic-letter-alif" x="100" y="100" transform="scale(1.5) rotate(15)" />
    <use href="#arabic-letter-alif" x="700" y="200" transform="scale(1.2) rotate(-10)" />
    <use href="#arabic-letter-ba" x="200" y="400" transform="scale(2) rotate(5)" />
    <use href="#arabic-letter-ba" x="600" y="500" transform="scale(1.8) rotate(-5)" />
    
    <!-- More letters scattered around -->
    <use href="#arabic-letter-alif" x="300" y="150" transform="scale(1.3) rotate(20)" />
    <use href="#arabic-letter-ba" x="500" y="300" transform="scale(1.7) rotate(-15)" />
    <use href="#arabic-letter-alif" x="150" y="500" transform="scale(1.4) rotate(5)" />
    <use href="#arabic-letter-ba" x="650" y="150" transform="scale(1.6) rotate(10)" />
  </g>
  
  <!-- Central decorative medallion -->
  <g transform="translate(400, 300)" filter="url(#glow)">
    <circle cx="0" cy="0" r="80" fill="none" stroke="url(#gold-gradient)" stroke-width="2" opacity="0.7" />
    <circle cx="0" cy="0" r="70" fill="none" stroke="url(#gold-gradient)" stroke-width="1" opacity="0.5" />
    <path d="M0,-60 L52,-30 L52,30 L0,60 L-52,30 L-52,-30 Z" fill="none" stroke="url(#gold-gradient)" stroke-width="1" opacity="0.6" />
    <circle cx="0" cy="0" r="20" fill="none" stroke="url(#gold-gradient)" stroke-width="1" opacity="0.8" />
  </g>
  
  <!-- Light rays from top -->
  <g opacity="0.1">
    <path d="M400,0 L380,200" stroke="#fff" stroke-width="1" />
    <path d="M400,0 L420,200" stroke="#fff" stroke-width="1" />
    <path d="M400,0 L350,180" stroke="#fff" stroke-width="0.5" />
    <path d="M400,0 L450,180" stroke="#fff" stroke-width="0.5" />
    <path d="M400,0 L300,150" stroke="#fff" stroke-width="0.3" />
    <path d="M400,0 L500,150" stroke="#fff" stroke-width="0.3" />
  </g>
  
  <!-- Corner decorative elements -->
  <g opacity="0.2">
    <path d="M0,0 C50,20 80,50 100,100" stroke="url(#gold-gradient)" stroke-width="2" fill="none" />
    <path d="M800,0 C750,20 720,50 700,100" stroke="url(#gold-gradient)" stroke-width="2" fill="none" />
    <path d="M0,600 C50,580 80,550 100,500" stroke="url(#gold-gradient)" stroke-width="2" fill="none" />
    <path d="M800,600 C750,580 720,550 700,500" stroke="url(#gold-gradient)" stroke-width="2" fill="none" />
  </g>
</svg>