<svg width="800" height="600" xmlns="http://www.w3.org/2000/svg">
  <!-- Background -->
  <rect width="100%" height="100%" fill="#f1faee" rx="20" ry="20" />
  
  <!-- Quran book -->
  <g transform="translate(200, 100)">
    <!-- Book cover -->
    <rect x="0" y="0" width="400" height="500" rx="10" ry="10" fill="#1d3557" />
    
    <!-- Book spine and details -->
    <rect x="190" y="0" width="20" height="500" fill="#e63946" />
    <rect x="20" y="20" width="360" height="460" rx="5" ry="5" fill="#457b9d" />
    
    <!-- Decorative elements -->
    <rect x="50" y="50" width="300" height="400" rx="5" ry="5" fill="#a8dadc" />
    
    <!-- Arabic text suggestion -->
    <g fill="#1d3557">
      <rect x="80" y="100" width="240" height="20" rx="5" ry="5" />
      <rect x="80" y="140" width="240" height="20" rx="5" ry="5" />
      <rect x="80" y="180" width="240" height="20" rx="5" ry="5" />
      <rect x="80" y="220" width="240" height="20" rx="5" ry="5" />
      <rect x="80" y="260" width="240" height="20" rx="5" ry="5" />
      <rect x="80" y="300" width="240" height="20" rx="5" ry="5" />
      <rect x="80" y="340" width="240" height="20" rx="5" ry="5" />
      <rect x="80" y="380" width="180" height="20" rx="5" ry="5" />
    </g>
    
    <!-- Decorative border -->
    <rect x="60" y="60" width="280" height="380" rx="5" ry="5" fill="none" stroke="#e63946" stroke-width="2" />
    
    <!-- Book title suggestion -->
    <rect x="100" y="430" width="200" height="30" rx="5" ry="5" fill="#e63946" />
  </g>
  
  <!-- Decorative elements -->
  <g opacity="0.7">
    <!-- Prayer beads -->
    <g transform="translate(650, 150)">
      <circle cx="0" cy="0" r="15" fill="#e63946" />
      <circle cx="0" cy="30" r="10" fill="#e63946" />
      <circle cx="0" cy="55" r="10" fill="#e63946" />
      <circle cx="0" cy="80" r="10" fill="#e63946" />
      <circle cx="0" cy="105" r="10" fill="#e63946" />
      <circle cx="0" cy="130" r="10" fill="#e63946" />
      <circle cx="0" cy="155" r="10" fill="#e63946" />
      <circle cx="0" cy="180" r="15" fill="#e63946" />
      <line x1="0" y1="15" x2="0" y2="165" stroke="#1d3557" stroke-width="2" />
    </g>
    
    <!-- Reading glasses -->
    <g transform="translate(100, 450)">
      <circle cx="0" cy="0" r="30" fill="none" stroke="#1d3557" stroke-width="3" />
      <circle cx="80" cy="0" r="30" fill="none" stroke="#1d3557" stroke-width="3" />
      <line x1="30" y1="0" x2="50" y2="0" stroke="#1d3557" stroke-width="3" />
      <line x1="110" y1="0" x2="140" y2="20" stroke="#1d3557" stroke-width="3" />
    </g>
  </g>
  
  <!-- Light effect -->
  <circle cx="400" cy="100" r="80" fill="#f1faee" opacity="0.3" />
</svg>