<svg width="800" height="600" xmlns="http://www.w3.org/2000/svg">
  <!-- Background -->
  <rect width="100%" height="100%" fill="#f8f9fa" rx="20" ry="20" />
  
  <!-- Study desk -->
  <rect x="100" y="400" width="600" height="20" fill="#6c757d" />
  <rect x="150" y="420" width="20" height="180" fill="#6c757d" />
  <rect x="630" y="420" width="20" height="180" fill="#6c757d" />
  
  <!-- Open Quran on desk -->
  <g transform="translate(250, 250)">
    <!-- Left page -->
    <path d="M0,0 L150,0 L150,300 L0,300 C50,250 50,50 0,0 Z" fill="#f1faee" stroke="#1d3557" stroke-width="2" />
    
    <!-- Right page -->
    <path d="M150,0 L300,0 L300,300 C250,250 250,50 300,0 L150,300 Z" fill="#f1faee" stroke="#1d3557" stroke-width="2" />
    
    <!-- Text lines on left page -->
    <g fill="#1d3557" opacity="0.7">
      <rect x="30" y="50" width="100" height="5" rx="2" ry="2" />
      <rect x="30" y="70" width="100" height="5" rx="2" ry="2" />
      <rect x="30" y="90" width="100" height="5" rx="2" ry="2" />
      <rect x="30" y="110" width="100" height="5" rx="2" ry="2" />
      <rect x="30" y="130" width="100" height="5" rx="2" ry="2" />
      <rect x="30" y="150" width="100" height="5" rx="2" ry="2" />
      <rect x="30" y="170" width="100" height="5" rx="2" ry="2" />
      <rect x="30" y="190" width="100" height="5" rx="2" ry="2" />
      <rect x="30" y="210" width="100" height="5" rx="2" ry="2" />
      <rect x="30" y="230" width="80" height="5" rx="2" ry="2" />
    </g>
    
    <!-- Text lines on right page -->
    <g fill="#1d3557" opacity="0.7">
      <rect x="170" y="50" width="100" height="5" rx="2" ry="2" />
      <rect x="170" y="70" width="100" height="5" rx="2" ry="2" />
      <rect x="170" y="90" width="100" height="5" rx="2" ry="2" />
      <rect x="170" y="110" width="100" height="5" rx="2" ry="2" />
      <rect x="170" y="130" width="100" height="5" rx="2" ry="2" />
      <rect x="170" y="150" width="100" height="5" rx="2" ry="2" />
      <rect x="170" y="170" width="100" height="5" rx="2" ry="2" />
      <rect x="170" y="190" width="100" height="5" rx="2" ry="2" />
      <rect x="170" y="210" width="100" height="5" rx="2" ry="2" />
      <rect x="170" y="230" width="80" height="5" rx="2" ry="2" />
    </g>
    
    <!-- Decorative border -->
    <rect x="20" y="30" width="110" height="220" rx="5" ry="5" fill="none" stroke="#e63946" stroke-width="1" opacity="0.5" />
    <rect x="170" y="30" width="110" height="220" rx="5" ry="5" fill="none" stroke="#e63946" stroke-width="1" opacity="0.5" />
  </g>
  
  <!-- Study lamp -->
  <g transform="translate(150, 150)">
    <rect x="0" y="0" width="10" height="250" fill="#6c757d" />
    <path d="M0,0 C0,0 -30,-50 0,-80 C30,-50 0,0 0,0 Z" fill="#6c757d" />
    <ellipse cx="0" cy="-80" rx="40" ry="20" fill="#f8f9fa" stroke="#6c757d" stroke-width="2" />
    <ellipse cx="0" cy="-80" rx="30" ry="15" fill="#ffc107" opacity="0.3" />
  </g>
  
  <!-- Digital tablet -->
  <g transform="translate(600, 350)">
    <rect x="-70" y="-100" width="140" height="100" rx="10" ry="10" fill="#343a40" />
    <rect x="-60" y="-90" width="120" height="80" rx="5" ry="5" fill="#f8f9fa" />
    <circle cx="0" cy="-40" r="10" fill="#343a40" />
  </g>
  
  <!-- Coffee cup -->
  <g transform="translate(650, 380)">
    <path d="M-20,-30 L20,-30 L15,0 L-15,0 Z" fill="#6c757d" />
    <ellipse cx="0" cy="-30" rx="20" ry="5" fill="#343a40" />
    <path d="M20,-25 C30,-25 30,-15 20,-15" fill="none" stroke="#6c757d" stroke-width="3" />
  </g>
  
  <!-- Notebook and pen -->
  <g transform="translate(180, 350)">
    <rect x="0" y="0" width="80" height="100" rx="5" ry="5" fill="#f8f9fa" stroke="#6c757d" stroke-width="1" />
    <line x1="10" y1="20" x2="70" y2="20" stroke="#6c757d" stroke-width="1" />
    <line x1="10" y1="40" x2="70" y2="40" stroke="#6c757d" stroke-width="1" />
    <line x1="10" y1="60" x2="70" y2="60" stroke="#6c757d" stroke-width="1" />
    <line x1="10" y1="80" x2="70" y2="80" stroke="#6c757d" stroke-width="1" />
    
    <!-- Pen -->
    <line x1="90" y1="30" x2="120" y2="60" stroke="#343a40" stroke-width="2" />
    <polygon points="90,30 85,35 95,25" fill="#e63946" />
  </g>
  
  <!-- Prayer beads -->
  <g transform="translate(180, 300)">
    <circle cx="0" cy="0" r="5" fill="#e63946" />
    <circle cx="10" cy="5" r="5" fill="#e63946" />
    <circle cx="20" cy="10" r="5" fill="#e63946" />
    <circle cx="30" cy="15" r="5" fill="#e63946" />
    <circle cx="40" cy="20" r="5" fill="#e63946" />
    <circle cx="50" cy="25" r="5" fill="#e63946" />
    <circle cx="60" cy="30" r="5" fill="#e63946" />
    <circle cx="70" cy="25" r="5" fill="#e63946" />
    <circle cx="80" cy="20" r="5" fill="#e63946" />
    <circle cx="90" cy="15" r="5" fill="#e63946" />
    <circle cx="100" cy="10" r="5" fill="#e63946" />
    <circle cx="110" cy="5" r="5" fill="#e63946" />
    <circle cx="120" cy="0" r="8" fill="#e63946" />
    <path d="M0,0 C40,40 80,40 120,0" fill="none" stroke="#6c757d" stroke-width="1" />
  </g>
</svg>